<?xml version="1.0" encoding="UTF-8" standalone="no"?>
<!-- Created with Inkscape (http://www.inkscape.org/) -->

<svg
   xmlns:dc="http://purl.org/dc/elements/1.1/"
   xmlns:cc="http://creativecommons.org/ns#"
   xmlns:rdf="http://www.w3.org/1999/02/22-rdf-syntax-ns#"
   xmlns:svg="http://www.w3.org/2000/svg"
   xmlns="http://www.w3.org/2000/svg"
   xmlns:sodipodi="http://sodipodi.sourceforge.net/DTD/sodipodi-0.dtd"
   xmlns:inkscape="http://www.inkscape.org/namespaces/inkscape"
   width="512"
   height="512"
   id="svg2"
   version="1.1"
   inkscape:version="0.48.5 r10040"
   sodipodi:docname="ic_service.svg"
   inkscape:export-filename="/Users/tkgktyk/OneDrive/AndroidStudio/WearablePad/mobile/images/ic_stat_service.png"
   inkscape:export-xdpi="90"
   inkscape:export-ydpi="90">
  <defs
     id="defs4" />
  <sodipodi:namedview
     id="base"
     pagecolor="#ffffff"
     bordercolor="#666666"
     borderopacity="1.0"
     inkscape:pageopacity="0"
     inkscape:pageshadow="2"
     inkscape:zoom="1.1191406"
     inkscape:cx="254.91337"
     inkscape:cy="256"
     inkscape:document-units="px"
     inkscape:current-layer="layer1"
     showgrid="true"
     inkscape:window-width="1280"
     inkscape:window-height="751"
     inkscape:window-x="0"
     inkscape:window-y="0"
     inkscape:window-maximized="1">
    <inkscape:grid
       type="xygrid"
       id="grid2985"
       empspacing="5"
       visible="true"
       enabled="true"
       snapvisiblegridlinesonly="true"
       spacingx="32px"
       spacingy="32px" />
  </sodipodi:namedview>
  <metadata
     id="metadata7">
    <rdf:RDF>
      <cc:Work
         rdf:about="">
        <dc:format>image/svg+xml</dc:format>
        <dc:type
           rdf:resource="http://purl.org/dc/dcmitype/StillImage" />
        <dc:title></dc:title>
      </cc:Work>
    </rdf:RDF>
  </metadata>
  <g
     inkscape:label="Layer 1"
     inkscape:groupmode="layer"
     id="layer1"
     transform="translate(0,-540.36218)">
    <path
       style="fill:#000000;fill-opacity:1;fill-rule:nonzero;stroke:none"
       d="M 256 0 C 114.61226 1.8947806e-14 0 114.61511 0 256 C 0 397.38489 114.61226 512 256 512 C 397.38774 512 512 397.38489 512 256 L 512 253.625 C 510.69798 113.17199 396.46188 -7.5791225e-14 256 0 z M 255.75 48 A 16.0016 16.0016 0 0 1 267.3125 52.6875 L 331.3125 116.6875 A 16.0016 16.0016 0 1 1 308.6875 139.3125 L 256 86.625 L 203.3125 139.3125 A 16.0016 16.0016 0 1 1 180.6875 116.6875 L 244.6875 52.6875 A 16.0016 16.0016 0 0 1 255.75 48 z M 383.84375 175.8125 A 16.0016 16.0016 0 0 1 395.3125 180.6875 L 459.3125 244.6875 A 16.0016 16.0016 0 0 1 459.3125 267.3125 L 395.3125 331.3125 A 16.0016 16.0016 0 1 1 372.6875 308.6875 L 425.375 256 L 372.6875 203.3125 A 16.0016 16.0016 0 0 1 383.84375 175.8125 z M 127.6875 175.84375 A 16.0016 16.0016 0 0 1 139.3125 203.3125 L 86.625 256 L 139.3125 308.6875 A 16.0016 16.0016 0 1 1 116.6875 331.3125 L 52.6875 267.3125 A 16.0016 16.0016 0 0 1 52.6875 244.6875 L 116.6875 180.6875 A 16.0016 16.0016 0 0 1 127.6875 175.84375 z M 319.84375 367.78125 A 16.0016 16.0016 0 0 1 331.3125 395.3125 L 267.3125 459.3125 A 16.0016 16.0016 0 0 1 244.6875 459.3125 L 180.6875 395.3125 A 16.0016 16.0016 0 0 1 191.84375 367.8125 A 16.0016 16.0016 0 0 1 203.3125 372.6875 L 256 425.375 L 308.6875 372.6875 A 16.0016 16.0016 0 0 1 319.84375 367.78125 z "
       transform="translate(0,540.36218)"
       id="path2987" />
  </g>
</svg>
